<svg width="166" height="115" viewBox="0 0 166 115" fill="none" xmlns="http://www.w3.org/2000/svg">
<path d="M34.8261 14.1881L23.453 47.7409H12.0157L0.642578 14.1881H10.2808L17.9914 39.6754L25.702 14.1881H34.8261ZM44.1174 24.512H35.1219C35.6359 15.9303 42.511 13.2202 50.2216 13.2202C58.2534 13.2202 64.6791 16.1238 64.6791 24.8347V47.7409H55.6833V41.2885H55.3621C55.3621 41.2885 53.306 48.7087 44.7601 48.7087C38.6557 48.7087 34.1579 45.8698 34.1579 39.6754C34.1579 33.4166 39.2984 30.5774 44.8242 29.1579C50.4144 27.7383 55.6833 27.2865 55.6833 23.5442C55.6833 20.8987 53.7557 19.3501 50.2216 19.3501C46.3663 19.3501 44.2459 20.8987 44.1174 24.512ZM55.6833 30.8354C54.2056 32.1906 51.1856 32.9001 48.6154 33.5455C45.7238 34.2553 43.2822 35.7393 43.2822 38.7074C43.2822 41.2885 45.0814 42.9017 47.9727 42.9017C54.0769 42.9017 55.6833 35.8039 55.6833 30.8354ZM67.8691 59.3554V14.1881H76.5436V18.7048H76.8649C76.8649 18.7048 79.7562 13.2202 87.1456 13.2202C96.7838 13.2202 101.603 21.6084 101.603 30.9644C101.603 40.3205 96.7838 48.7087 87.1456 48.7087C80.0777 48.7087 77.1861 44.192 77.1861 44.192H76.8649V59.3554H67.8691ZM76.5436 30.9644C76.5436 37.0298 79.1137 41.9337 84.5755 41.9337C90.0372 41.9337 92.6073 37.0298 92.6073 30.9644C92.6073 24.8992 90.0372 19.9953 84.5755 19.9953C79.1137 19.9953 76.5436 24.8992 76.5436 30.9644ZM113.518 24.512H104.522C105.036 15.9303 111.911 13.2202 119.622 13.2202C127.654 13.2202 134.079 16.1238 134.079 24.8347V47.7409H125.084V41.2885H124.762C124.762 41.2885 122.706 48.7087 114.16 48.7087C108.056 48.7087 103.558 45.8698 103.558 39.6754C103.558 33.4166 108.699 30.5774 114.225 29.1579C119.815 27.7383 125.084 27.2865 125.084 23.5442C125.084 20.8987 123.156 19.3501 119.622 19.3501C115.767 19.3501 113.646 20.8987 113.518 24.512ZM125.084 30.8354C123.606 32.1906 120.586 32.9001 118.016 33.5455C115.124 34.2553 112.682 35.7393 112.682 38.7074C112.682 41.2885 114.481 42.9017 117.373 42.9017C123.477 42.9017 125.084 35.8039 125.084 30.8354ZM137.269 47.7409V14.1881H146.265V21.2858H150.763C154.618 21.2858 155.903 21.2858 155.903 17.0917V14.1881H164.899V18.0596C164.899 25.4799 162.329 27.7383 153.012 27.7383H146.265V47.7409H137.269ZM1.28512 92.1615H9.95953C9.95953 92.1615 9.95953 97.9688 17.0276 97.9688C21.8467 97.9688 23.1318 95.7104 23.1318 93.7747C23.1318 86.6771 1.92767 92.1615 1.92767 79.2567C1.92767 73.4495 7.38934 68.61 16.385 68.61C29.236 68.61 31.1636 76.0304 31.1636 79.2567H22.4892C22.4892 79.2567 22.4892 74.7401 16.385 74.7401C12.851 74.7401 10.9234 76.5466 10.9234 78.6116C10.9234 84.4188 32.1273 80.2245 32.1273 92.807C32.1273 99.2593 26.6659 104.099 17.0276 104.099C3.85533 104.099 1.28512 96.033 1.28512 92.1615ZM56.5141 103.131V89.9032H43.9845V103.131H34.9887V69.578H43.9845V82.8056H56.5141V69.578H65.5099V103.131H56.5141ZM77.422 86.3543C77.422 92.4197 79.7352 97.3236 85.4538 97.3236C91.1727 97.3236 93.4859 92.4197 93.4859 86.3543C93.4859 80.2891 91.1727 75.3852 85.4538 75.3852C79.7352 75.3852 77.422 80.2891 77.422 86.3543ZM68.4264 86.3543C68.4264 76.5466 74.4663 68.61 85.4538 68.61C96.4416 68.61 102.481 76.5466 102.481 86.3543C102.481 96.1623 96.4416 104.099 85.4538 104.099C74.4663 104.099 68.4264 96.1623 68.4264 86.3543ZM105.393 114.745V69.578H114.067V74.0947H114.389C114.389 74.0947 117.28 68.61 124.669 68.61C134.308 68.61 139.127 76.9984 139.127 86.3543C139.127 95.7104 134.308 104.099 124.669 104.099C117.601 104.099 114.71 99.5819 114.71 99.5819H114.389V114.745H105.393ZM114.067 86.3543C114.067 92.4197 116.638 97.3236 122.099 97.3236C127.561 97.3236 130.131 92.4197 130.131 86.3543C130.131 80.2891 127.561 75.3852 122.099 75.3852C116.638 75.3852 114.067 80.2891 114.067 86.3543Z" fill="white"/>
<path d="M144.265 98.0532C144.265 94.8617 146.865 92.2505 150.044 92.2505C153.222 92.2505 155.822 94.8617 155.822 98.0532C155.822 101.245 153.222 103.856 150.044 103.856C146.865 103.856 144.265 101.245 144.265 98.0532Z" fill="#E13CF5"/>
</svg>
